<svg width="43" height="43" viewBox="0 0 43 43" fill="none" xmlns="http://www.w3.org/2000/svg">
<path fill-rule="evenodd" clip-rule="evenodd" d="M0 0H43V43H0V0Z" fill="white"/>
<path fill-rule="evenodd" clip-rule="evenodd" d="M16.2 1.24C21.62 -0.15 27.61 0.66 32.39 3.61C38.41 7.21 42.34 14.02 42.44 21.03C42.66 28.11 38.97 35.13 33.04 38.98C26.44 43.42 17.31 43.59 10.57 39.37C3.7 35.27 -0.309998 27 0.720001 19.06C1.55 10.67 8.03 3.27 16.2 1.24Z" fill="#465573"/>
<path fill-rule="evenodd" clip-rule="evenodd" d="M15.37 4.67C25.61 0.57 38.17 8.14 39.23 19.12C40.88 29 32.68 39.04 22.67 39.33C13.15 40.28 3.95 32.21 3.68 22.65C2.97 14.91 8.06999 7.23 15.37 4.67Z" fill="white"/>
<path fill-rule="evenodd" clip-rule="evenodd" d="M16.4 20.44C20.99 16.69 25.48 12.81 30.17 9.17C27.71 12.95 25.18 16.68 22.72 20.46C20.61 20.47 18.5 20.47 16.4 20.44Z" fill="#010101"/>
<path fill-rule="evenodd" clip-rule="evenodd" d="M20.28 22.53C22.4 22.53 24.51 22.53 26.62 22.56C22 26.29 17.53 30.2 12.83 33.83C15.29 30.05 17.82 26.31 20.28 22.53Z" fill="#465573"/>
</svg>
